
<svg xmlns="http://www.w3.org/2000/svg" version="1.1" xmlns:xlink="http://www.w3.org/1999/xlink" preserveAspectRatio="none" x="0px" y="0px" width="1280px" height="720px" viewBox="0 0 1280 720">
<defs>
<g id="Layer27_0_FILL">
<path fill="#006633" stroke="none" d="
M 1364.95 732
L 1364.95 569 -28.95 569 -28.95 732 1364.95 732 Z"/>
</g>

<g id="Layer26_0_FILL">
<path fill="#0099FF" stroke="none" d="
M 1400.95 584
L 1400.95 -5.95 -29.95 -5.95 -29.95 584 1400.95 584 Z"/>
</g>

<g id="Layer24_0_FILL">
<path fill="#FFFFCC" stroke="none" d="
M 167 518.35
L 167 608 529.5 608 530 608 530 518.35 167 518.35 Z"/>
</g>

<g id="Layer23_0_FILL">
<path fill="#FFFF99" stroke="none" d="
M 530 518.35
L 530 441 352.3 441 352.3 518.35 530 518.35 Z"/>
</g>

<g id="Layer22_0_FILL">
<path fill="#FFFF99" stroke="none" d="
M 167 441
L 167 518.35 352.3 518.35 352.3 441 167 441 Z"/>
</g>

<g id="Layer21_0_FILL">
<path fill="#4A4A4A" stroke="none" d="
M 167 441
L 530 441 348.5 303.05 167 441 Z"/>
</g>

<g id="Layer20_0_FILL">
<path fill="#FF9933" stroke="none" d="
M 425.9 598.45
L 408 598.45 408 609 425.9 609 425.9 598.45 Z"/>
</g>

<g id="Layer20_1_FILL">
<path fill="#FF9933" stroke="none" d="
M 443.8 598.45
L 425.9 598.45 425.9 609 443.8 609 443.8 598.45 Z"/>
</g>

<g id="Layer20_2_FILL">
<path fill="#FF9933" stroke="none" d="
M 443.8 598.45
L 425.9 598.45 425.9 609 443.8 609 443.8 598.45 Z"/>
</g>

<g id="Layer20_3_FILL">
<path fill="#FF9933" stroke="none" d="
M 443.8 598.45
L 425.9 598.45 425.9 609 443.8 609 443.8 598.45 Z"/>
</g>

<g id="Layer20_4_FILL">
<path fill="#FF9933" stroke="none" d="
M 443.8 598.45
L 425.9 598.45 425.9 609 443.8 609 443.8 598.45 Z"/>
</g>

<g id="Layer20_5_FILL">
<path fill="#FF9933" stroke="none" d="
M 443.8 598.45
L 425.9 598.45 425.9 609 443.8 609 443.8 598.45 Z"/>
</g>

<g id="Layer20_6_FILL">
<path fill="#FF9933" stroke="none" d="
M 443.8 598.45
L 425.9 598.45 425.9 609 443.8 609 443.8 598.45 Z"/>
</g>

<g id="Layer20_7_FILL">
<path fill="#FF9933" stroke="none" d="
M 443.8 598.45
L 425.9 598.45 425.9 609 443.8 609 443.8 598.45 Z"/>
</g>

<g id="Layer18_0_FILL">
<path fill="#000000" stroke="none" d="
M 199.35 564.95
Q 198.55 564.95 198 565.5 197.45 566.05 197.45 566.85 197.45 567.65 198 568.2 198.55 568.75 199.35 568.75 200.15 568.75 200.7 568.2 201.25 567.65 201.25 566.85 201.25 566.05 200.7 565.5 200.15 564.95 199.35 564.95
M 192 565.5
Q 191.45 564.95 190.65 564.95 189.85 564.95 189.3 565.5 188.75 566.05 188.75 566.85 188.75 567.65 189.3 568.2 189.85 568.75 190.65 568.75 191.45 568.75 192 568.2 192.55 567.65 192.55 566.85 192.55 566.05 192 565.5 Z"/>
</g>

<g id="Layer18_1_FILL">
<path fill="#663300" stroke="none" d="
M 223.3 532.45
L 167 532.45 167 608 223.3 608 223.3 532.45 Z"/>
</g>

<g id="Layer18_4_FILL">
<path fill="#663300" stroke="none" d="
M 195.15 532.45
L 167 532.45 167 595.35 195.15 595.35 195.15 532.45 Z"/>
</g>

<g id="Layer17_0_FILL">
<path fill="#000000" stroke="none" d="
M 199.35 564.95
Q 198.55 564.95 198 565.5 197.45 566.05 197.45 566.85 197.45 567.65 198 568.2 198.55 568.75 199.35 568.75 200.15 568.75 200.7 568.2 201.25 567.65 201.25 566.85 201.25 566.05 200.7 565.5 200.15 564.95 199.35 564.95
M 192 565.5
Q 191.45 564.95 190.65 564.95 189.85 564.95 189.3 565.5 188.75 566.05 188.75 566.85 188.75 567.65 189.3 568.2 189.85 568.75 190.65 568.75 191.45 568.75 192 568.2 192.55 567.65 192.55 566.85 192.55 566.05 192 565.5 Z"/>
</g>

<g id="Layer14_0_FILL">
<path fill="#999999" stroke="none" d="
M 175.35 499.8
L 175.35 514.1 243.9 514.1 243.9 499.8 175.35 499.8 Z"/>
</g>

<g id="Layer13_0_FILL">
<path fill="#CCCCCC" stroke="none" d="
M 181 494
Q 178.65 494 177 494.85 175.35 495.7 175.35 496.9 175.35 498.1 177 498.95 178.65 499.8 181 499.8 183.35 499.8 185 498.95 186.65 498.1 186.65 496.9 186.65 495.7 185 494.85 183.35 494 181 494 Z"/>
</g>

<g id="Layer12_1_FILL">
<path fill="#663333" stroke="none" d="
M 529.5 576.35
L 476.5 576.35 476.5 608 529.5 608 529.5 576.35 Z"/>
</g>

<g id="Layer12_3_FILL">
<path fill="#663333" stroke="none" d="
M 529.5 592.15
L 476.5 592.15 476.5 599.5 529.5 599.5 529.5 592.15 Z"/>
</g>

<g id="Layer10_0_FILL">
<path fill="#333333" stroke="none" d="
M 297.1 492.2
L 275.05 492.2 275.05 509.5 329.05 509.5 329.05 492.2 312.95 492.2 312.95 505.25 297.1 505.25 297.1 492.2 Z"/>

<path fill="#666666" stroke="none" d="
M 312.95 492.2
L 312.95 479.1 297.1 479.1 297.1 492.2 297.1 505.25 312.95 505.25 312.95 492.2 Z"/>
</g>

<g id="Layer7_0_FILL">
<path fill="#00CCFF" stroke="none" d="
M 411.55 464.4
L 411.55 489.15 481.4 489.15 481.4 464.4 411.55 464.4 Z"/>
</g>

<g id="Layer5_0_FILL">
<path fill="#999999" stroke="none" d="
M 368.95 487.15
Q 365.9 487.3 362.85 487.25 362.7 502.7 362.7 518.35 375.1 518.15 387.65 518.35 395.9 506.05 387.5 502.95 366.35 502.65 368.95 487.15 Z"/>
</g>

<g id="Layer3_0_FILL">
<path fill="#FF9900" stroke="none" d="
M 167 441
L 167 609 530 609 530 441 167 441 Z"/>
</g>

<g id="Layer2_0_FILL">
<path fill="#FFCCCC" stroke="none" d="
M 374.95 460.1
Q 382.15 482.9 374.95 499.95 389.65 497.9 405.45 497.3
L 405.5 463.95
Q 390.35 462.9 374.95 460.1
M 469.75 460.1
Q 453.2 463.3 436.3 464.2
L 436.2 497.35
Q 452.45 498 469.75 499.95 463.1 479.65 469.75 460.1
M 436.3 464.2
Q 421 465 405.5 463.95
L 405.45 497.3
Q 420.35 496.7 436.2 497.35
L 436.3 464.2
M 294.75 554.05
L 294.75 535.8 276.45 535.8 276.45 554.05 294.75 554.05
M 276.45 572.3
L 276.45 554.05 258.2 554.05 258.2 572.3 276.45 572.3
M 276.45 554.05
L 276.45 572.3 294.75 572.3 294.75 554.05 276.45 554.05
M 276.45 572.3
L 276.45 572.35 294.75 572.35 294.75 572.3 276.45 572.3
M 276.45 535.8
L 258.2 535.8 258.2 554.05 276.45 554.05 276.45 535.8
M 208.45 479.4
L 190.2 479.4 190.2 497.65 208.45 497.65 208.45 479.4
M 226.75 479.4
L 208.45 479.4 208.45 497.65 208.45 497.7 226.75 497.7 226.75 479.4
M 208.45 479.4
L 226.75 479.4 226.75 461.15 208.45 461.15 208.45 479.4
M 190.2 461.15
L 190.2 479.4 208.45 479.4 208.45 461.15 190.2 461.15
M 287.75 479.3
L 268.55 479.3 268.55 498.5 287.75 498.5 287.75 479.3
M 306.95 479.3
L 287.75 479.3 287.75 498.5 306.95 498.5 306.95 479.3
M 287.75 479.3
L 306.95 479.3 306.95 460.1 287.75 460.1 287.75 479.3
M 268.55 460.1
L 268.55 479.3 287.75 479.3 287.75 460.1 268.55 460.1
M 355.75 534.75
L 355.75 553.95 374.95 553.95 374.95 534.75 355.75 534.75
M 355.75 573.15
L 355.75 553.95 336.55 553.95 336.55 573.15 355.75 573.15
M 355.75 553.95
L 355.75 573.15 374.95 573.15 374.95 553.95 355.75 553.95
M 355.75 534.75
L 336.55 534.75 336.55 553.95 355.75 553.95 355.75 534.75
M 415.55 574.6
Q 430.25 572.55 446.05 571.95
L 446.1 538.6
Q 430.95 537.55 415.55 534.75 422.75 557.55 415.55 574.6
M 476.9 538.85
Q 461.6 539.65 446.1 538.6
L 446.05 571.95
Q 460.95 571.35 476.8 572
L 476.9 538.85
M 510.35 574.6
Q 503.7 554.3 510.35 534.75 493.8 537.95 476.9 538.85
L 476.8 572
Q 493.05 572.65 510.35 574.6 Z"/>
</g>

<g id="Layer2_4_FILL">
<path fill="#FFCCCC" stroke="none" d="
M 226.35 525.8
L 190.2 525.8 190.2 608.7 226.35 608.7 226.35 525.8 Z"/>
</g>

<g id="Layer0_0_FILL">
<path fill="#000000" stroke="none" d="
M 223.9 568.9
Q 223.9 568.1 223.35 567.55 222.8 567 222 567 221.2 567 220.65 567.55 220.1 568.1 220.1 568.9 220.1 569.7 220.65 570.25 221.2 570.8 222 570.8 222.8 570.8 223.35 570.25 223.9 569.7 223.9 568.9 Z"/>
</g>

<path id="Layer25_0_1_STROKES" stroke="#000000" stroke-width="1" stroke-linejoin="round" stroke-linecap="round" fill="none" d="
M 167 441
L 167 518.35 352.3 518.35 352.3 441 167 441 348.5 303.05 530 441 530 518.35 530 609 167 609 167 608 167 518.35
M 352.3 518.35
L 530 518.35
M 352.3 441
L 530 441
M 167 608
L 529.5 608"/>

<path id="Layer24_0_1_STROKES" stroke="#000000" stroke-width="1" stroke-linejoin="round" stroke-linecap="round" fill="none" d="
M 530 608
L 530 518.35 167 518.35 167 608 529.5 608
M 530 608
L 530 609 167 609"/>

<path id="Layer23_0_1_STROKES" stroke="#000000" stroke-width="1" stroke-linejoin="round" stroke-linecap="round" fill="none" d="
M 530 518.35
L 530 441 352.3 441 352.3 518.35 530 518.35 Z
M 352.3 518.35
L 167 518.35"/>

<path id="Layer22_0_1_STROKES" stroke="#000000" stroke-width="1" stroke-linejoin="round" stroke-linecap="round" fill="none" d="
M 352.3 441
L 167 441 167 518.35 352.3 518.35 352.3 441 Z"/>

<path id="Layer21_0_1_STROKES" stroke="#000000" stroke-width="1" stroke-linejoin="round" stroke-linecap="round" fill="none" d="
M 167 441
L 530 441 348.5 303.05 167 441 Z"/>

<path id="Layer20_0_1_STROKES" stroke="#000000" stroke-width="1" stroke-linejoin="round" stroke-linecap="round" fill="none" d="
M 386.887548828125 596.785173034668
L 404.7870025634765 596.785173034668 404.7870025634765 607.9774841308594 386.887548828125 607.9774841308594 386.887548828125 596.785173034668 Z"/>

<path id="Layer20_1_1_STROKES" stroke="#000000" stroke-width="1" stroke-linejoin="round" stroke-linecap="round" fill="none" d="
M 404.7870025634765 585.5851730346681
L 422.6864562988281 585.5851730346681 422.6864562988281 596.7774841308594 404.7870025634765 596.7774841308594 404.7870025634765 585.5851730346681 Z"/>

<path id="Layer20_2_1_STROKES" stroke="#000000" stroke-width="1" stroke-linejoin="round" stroke-linecap="round" fill="none" d="
M 422.68700256347654 574.435173034668
L 440.5864562988281 574.435173034668 440.5864562988281 585.6274841308593 422.68700256347654 585.6274841308593 422.68700256347654 574.435173034668 Z"/>

<path id="Layer20_3_1_STROKES" stroke="#000000" stroke-width="1" stroke-linejoin="round" stroke-linecap="round" fill="none" d="
M 440.3870025634765 563.185173034668
L 458.2864562988281 563.185173034668 458.2864562988281 574.3774841308593 440.3870025634765 574.3774841308593 440.3870025634765 563.185173034668 Z"/>

<path id="Layer20_4_1_STROKES" stroke="#000000" stroke-width="1" stroke-linejoin="round" stroke-linecap="round" fill="none" d="
M 458.2870025634765 552.035173034668
L 476.1864562988281 552.035173034668 476.1864562988281 563.2274841308594 458.2870025634765 563.2274841308594 458.2870025634765 552.035173034668 Z"/>

<path id="Layer20_5_1_STROKES" stroke="#000000" stroke-width="1" stroke-linejoin="round" stroke-linecap="round" fill="none" d="
M 476.18700256347654 540.8351730346681
L 494.0864562988281 540.8351730346681 494.0864562988281 552.0274841308594 476.18700256347654 552.0274841308594 476.18700256347654 540.8351730346681 Z"/>

<path id="Layer20_6_1_STROKES" stroke="#000000" stroke-width="1" stroke-linejoin="round" stroke-linecap="round" fill="none" d="
M 494.0870025634765 529.685173034668
L 511.9864562988281 529.685173034668 511.9864562988281 540.8774841308593 494.0870025634765 540.8774841308593 494.0870025634765 529.685173034668 Z"/>

<path id="Layer20_7_1_STROKES" stroke="#000000" stroke-width="1" stroke-linejoin="round" stroke-linecap="round" fill="none" d="
M 511.9870025634765 518.385173034668
L 529.8864562988281 518.385173034668 529.8864562988281 529.5774841308594 511.9870025634765 529.5774841308594 511.9870025634765 518.385173034668 Z"/>

<path id="Layer19_0_1_STROKES" stroke="#000000" stroke-width="1" stroke-linejoin="round" stroke-linecap="round" fill="none" d="
M 386.887548828125 596.785173034668
L 404.7870025634765 596.785173034668 404.7870025634765 607.9774841308594 386.887548828125 607.9774841308594 386.887548828125 596.785173034668 Z"/>

<path id="Layer19_1_1_STROKES" stroke="#000000" stroke-width="1" stroke-linejoin="round" stroke-linecap="round" fill="none" d="
M 404.7870025634765 585.5851730346681
L 422.6864562988281 585.5851730346681 422.6864562988281 596.7774841308594 404.7870025634765 596.7774841308594 404.7870025634765 585.5851730346681 Z"/>

<path id="Layer19_2_1_STROKES" stroke="#000000" stroke-width="1" stroke-linejoin="round" stroke-linecap="round" fill="none" d="
M 422.68700256347654 574.435173034668
L 440.5864562988281 574.435173034668 440.5864562988281 585.6274841308593 422.68700256347654 585.6274841308593 422.68700256347654 574.435173034668 Z"/>

<path id="Layer19_3_1_STROKES" stroke="#000000" stroke-width="1" stroke-linejoin="round" stroke-linecap="round" fill="none" d="
M 440.3870025634765 563.185173034668
L 458.2864562988281 563.185173034668 458.2864562988281 574.3774841308593 440.3870025634765 574.3774841308593 440.3870025634765 563.185173034668 Z"/>

<path id="Layer19_4_1_STROKES" stroke="#000000" stroke-width="1" stroke-linejoin="round" stroke-linecap="round" fill="none" d="
M 458.2870025634765 552.035173034668
L 476.1864562988281 552.035173034668 476.1864562988281 563.2274841308594 458.2870025634765 563.2274841308594 458.2870025634765 552.035173034668 Z"/>

<path id="Layer19_5_1_STROKES" stroke="#000000" stroke-width="1" stroke-linejoin="round" stroke-linecap="round" fill="none" d="
M 476.18700256347654 540.8351730346681
L 494.0864562988281 540.8351730346681 494.0864562988281 552.0274841308594 476.18700256347654 552.0274841308594 476.18700256347654 540.8351730346681 Z"/>

<path id="Layer19_6_1_STROKES" stroke="#000000" stroke-width="1" stroke-linejoin="round" stroke-linecap="round" fill="none" d="
M 494.0870025634765 529.685173034668
L 511.9864562988281 529.685173034668 511.9864562988281 540.8774841308593 494.0870025634765 540.8774841308593 494.0870025634765 529.685173034668 Z"/>

<path id="Layer19_7_1_STROKES" stroke="#000000" stroke-width="1" stroke-linejoin="round" stroke-linecap="round" fill="none" d="
M 511.9870025634765 518.385173034668
L 529.8864562988281 518.385173034668 529.8864562988281 529.5774841308594 511.9870025634765 529.5774841308594 511.9870025634765 518.385173034668 Z"/>

<path id="Layer18_0_1_STROKES" stroke="#000000" stroke-width="1" stroke-linejoin="round" stroke-linecap="round" fill="none" d="
M 223.3 532.45
L 242.1 532.45
M 223.3 559.3
L 242.1 559.3
M 223.3 546.75
L 242.1 546.75
M 223.3 585.6
L 242.1 585.6
M 223.3 572.95
L 242.1 572.95
M 223.3 608
L 242.1 608
M 223.3 598.5
L 242.1 598.5
M 207.45 599.5
L 214 599.5
M 207.45 605.25
L 214 605.25
M 174.4 599.5
L 180.95 599.5
M 174.4 605.25
L 180.95 605.25"/>

<path id="Layer18_0_2_STROKES" stroke="#333333" stroke-width="1" stroke-linejoin="round" stroke-linecap="round" fill="none" d="
M 192.55 566.85
Q 192.55 567.65 192 568.2 191.45 568.75 190.65 568.75 189.85 568.75 189.3 568.2 188.75 567.65 188.75 566.85 188.75 566.05 189.3 565.5 189.85 564.95 190.65 564.95 191.45 564.95 192 565.5 192.55 566.05 192.55 566.85 Z
M 201.25 566.85
Q 201.25 567.65 200.7 568.2 200.15 568.75 199.35 568.75 198.55 568.75 198 568.2 197.45 567.65 197.45 566.85 197.45 566.05 198 565.5 198.55 564.95 199.35 564.95 200.15 564.95 200.7 565.5 201.25 566.05 201.25 566.85 Z"/>

<path id="Layer18_1_1_STROKES" stroke="#000000" stroke-width="1" stroke-linejoin="round" stroke-linecap="round" fill="none" d="
M 167 532.45
L 223.3 532.45 223.3 608 167 608 167 532.45 Z"/>

<path id="Layer18_2_1_STROKES" stroke="#000000" stroke-width="1" stroke-linejoin="round" stroke-linecap="round" fill="none" d="
M 167 602.2
L 223.3 602.2 223.3 608 167 608 167 602.2 Z"/>

<path id="Layer18_3_1_STROKES" stroke="#000000" stroke-width="1" stroke-linejoin="round" stroke-linecap="round" fill="none" d="
M 167 595.35
L 223.3 595.35 223.3 602.2 167 602.2 167 595.35 Z"/>

<path id="Layer18_4_1_STROKES" stroke="#000000" stroke-width="1" stroke-linejoin="round" stroke-linecap="round" fill="none" d="
M 167 532.45
L 195.15 532.45 195.15 595.35 167 595.35 167 532.45 Z"/>

<path id="Layer18_5_1_STROKES" stroke="#000000" stroke-width="1" stroke-linejoin="round" stroke-linecap="round" fill="none" d="
M 195.15 532.45
L 223.3 532.45 223.3 595.35 195.15 595.35 195.15 532.45 Z"/>

<path id="Layer17_0_1_STROKES" stroke="#000000" stroke-width="1" stroke-linejoin="round" stroke-linecap="round" fill="none" d="
M 223.3 532.45
L 242.1 532.45
M 223.3 546.75
L 242.1 546.75
M 223.3 559.3
L 242.1 559.3
M 223.3 572.95
L 242.1 572.95
M 223.3 585.6
L 242.1 585.6
M 207.45 605.25
L 214 605.25
M 207.45 599.5
L 214 599.5
M 223.3 598.5
L 242.1 598.5
M 223.3 608
L 242.1 608
M 174.4 605.25
L 180.95 605.25
M 174.4 599.5
L 180.95 599.5"/>

<path id="Layer17_0_2_STROKES" stroke="#333333" stroke-width="1" stroke-linejoin="round" stroke-linecap="round" fill="none" d="
M 192.55 566.85
Q 192.55 567.65 192 568.2 191.45 568.75 190.65 568.75 189.85 568.75 189.3 568.2 188.75 567.65 188.75 566.85 188.75 566.05 189.3 565.5 189.85 564.95 190.65 564.95 191.45 564.95 192 565.5 192.55 566.05 192.55 566.85 Z
M 201.25 566.85
Q 201.25 567.65 200.7 568.2 200.15 568.75 199.35 568.75 198.55 568.75 198 568.2 197.45 567.65 197.45 566.85 197.45 566.05 198 565.5 198.55 564.95 199.35 564.95 200.15 564.95 200.7 565.5 201.25 566.05 201.25 566.85 Z"/>

<path id="Layer17_1_1_STROKES" stroke="#000000" stroke-width="1" stroke-linejoin="round" stroke-linecap="round" fill="none" d="
M 167 532.45
L 223.3 532.45 223.3 608 167 608 167 532.45 Z"/>

<path id="Layer17_2_1_STROKES" stroke="#000000" stroke-width="1" stroke-linejoin="round" stroke-linecap="round" fill="none" d="
M 167 602.2
L 223.3 602.2 223.3 608 167 608 167 602.2 Z"/>

<path id="Layer17_3_1_STROKES" stroke="#000000" stroke-width="1" stroke-linejoin="round" stroke-linecap="round" fill="none" d="
M 167 595.35
L 223.3 595.35 223.3 602.2 167 602.2 167 595.35 Z"/>

<path id="Layer17_4_1_STROKES" stroke="#000000" stroke-width="1" stroke-linejoin="round" stroke-linecap="round" fill="none" d="
M 167 532.45
L 195.15 532.45 195.15 595.35 167 595.35 167 532.45 Z"/>

<path id="Layer17_5_1_STROKES" stroke="#000000" stroke-width="1" stroke-linejoin="round" stroke-linecap="round" fill="none" d="
M 195.15 532.45
L 223.3 532.45 223.3 595.35 195.15 595.35 195.15 532.45 Z"/>

<path id="Layer16_0_1_STROKES" stroke="#000000" stroke-width="1" stroke-linejoin="round" stroke-linecap="round" fill="none" d="
M 311 578.2
L 311.3 608
M 285.65 577.3
L 336.65 577.3"/>

<path id="Layer15_0_1_STROKES" stroke="#000000" stroke-width="1" stroke-linejoin="round" stroke-linecap="round" fill="none" d="
M 336.65 608
L 336.65 589.55 352.45 589.55 352.45 564.5
M 352.45 589.55
L 352.45 608"/>

<path id="Layer14_0_1_STROKES" stroke="#000000" stroke-width="1" stroke-linejoin="round" stroke-linecap="round" fill="none" d="
M 175.35 514.1
L 175.35 499.8 175.35 488.35
M 175.35 514.1
L 175.35 518.35
M 243.9 514.1
L 243.9 518.35
M 243.9 496.8
L 243.9 499.8 243.9 514.1 175.35 514.1
M 175.35 499.8
L 243.9 499.8"/>

<path id="Layer13_0_1_STROKES" stroke="#000000" stroke-width="1" stroke-linejoin="round" stroke-linecap="round" fill="none" d="
M 186.65 496.9
Q 186.65 498.1 185 498.95 183.35 499.8 181 499.8 178.65 499.8 177 498.95 175.35 498.1 175.35 496.9 175.35 495.7 177 494.85 178.65 494 181 494 183.35 494 185 494.85 186.65 495.7 186.65 496.9 Z"/>

<path id="Layer12_0_1_STROKES" stroke="#000000" stroke-width="1" stroke-linejoin="round" stroke-linecap="round" fill="none" d="
M 500.5 580.25
L 507.05 580.25
M 500.5 587.95
L 507.05 587.95
M 500.5 596
L 507.05 596
M 500.5 603.7
L 507.05 603.7"/>

<path id="Layer12_1_1_STROKES" stroke="#000000" stroke-width="1" stroke-linejoin="round" stroke-linecap="round" fill="none" d="
M 476.5 576.35
L 529.5 576.35 529.5 608 476.5 608 476.5 576.35 Z"/>

<path id="Layer12_2_1_STROKES" stroke="#000000" stroke-width="1" stroke-linejoin="round" stroke-linecap="round" fill="none" d="
M 476.5 599.5
L 529.5 599.5 529.5 608 476.5 608 476.5 599.5 Z"/>

<path id="Layer12_3_1_STROKES" stroke="#000000" stroke-width="1" stroke-linejoin="round" stroke-linecap="round" fill="none" d="
M 476.5 592.15
L 529.5 592.15 529.5 599.5 476.5 599.5 476.5 592.15 Z"/>

<path id="Layer12_4_1_STROKES" stroke="#000000" stroke-width="1" stroke-linejoin="round" stroke-linecap="round" fill="none" d="
M 476.5 583.1
L 529.5 583.1 529.5 592.15 476.5 592.15 476.5 583.1 Z"/>

<path id="Layer11_0_1_STROKES" stroke="#000000" stroke-width="1" stroke-linejoin="round" stroke-linecap="round" fill="none" d="
M 500.5 587.95
L 507.05 587.95
M 500.5 580.25
L 507.05 580.25
M 500.5 603.7
L 507.05 603.7
M 500.5 596
L 507.05 596"/>

<path id="Layer11_1_1_STROKES" stroke="#000000" stroke-width="1" stroke-linejoin="round" stroke-linecap="round" fill="none" d="
M 476.5 576.35
L 529.5 576.35 529.5 608 476.5 608 476.5 576.35 Z"/>

<path id="Layer11_2_1_STROKES" stroke="#000000" stroke-width="1" stroke-linejoin="round" stroke-linecap="round" fill="none" d="
M 476.5 599.5
L 529.5 599.5 529.5 608 476.5 608 476.5 599.5 Z"/>

<path id="Layer11_3_1_STROKES" stroke="#000000" stroke-width="1" stroke-linejoin="round" stroke-linecap="round" fill="none" d="
M 476.5 592.15
L 529.5 592.15 529.5 599.5 476.5 599.5 476.5 592.15 Z"/>

<path id="Layer11_4_1_STROKES" stroke="#000000" stroke-width="1" stroke-linejoin="round" stroke-linecap="round" fill="none" d="
M 476.5 583.1
L 529.5 583.1 529.5 592.15 476.5 592.15 476.5 583.1 Z"/>

<path id="Layer9_0_1_STROKES" stroke="#000000" stroke-width="1" stroke-linejoin="round" stroke-linecap="round" fill="none" d="
M 275.05 518.35
L 275.05 509.5 275.05 492.2 297.1 492.2 297.1 479.1 312.95 479.1 312.95 492.2 329.05 492.2 329.05 509.5 329.05 518.35
M 312.95 492.2
L 312.95 505.25 312.95 509.5 329.05 509.5
M 312.95 509.5
L 312.95 518.35
M 312.95 505.25
L 297.1 505.25 297.1 509.5 312.95 509.5
M 297.1 518.35
L 297.1 509.5 275.05 509.5
M 297.1 492.2
L 297.1 505.25"/>

<path id="Layer8_0_1_STROKES" stroke="#333333" stroke-width="1" stroke-linejoin="round" stroke-linecap="round" fill="none" d="
M 354.8 494.1
Q 354.8 494.9 354.25 495.45 353.7 496 352.9 496 352.1 496 352.45 495.4 352.8 494.75 352.8 493.95 352.8 493.15 352.45 492.7 352.1 492.2 352.9 492.2 353.7 492.2 354.25 492.75 354.8 493.3 354.8 494.1 Z
M 351.6 494.1
Q 351.6 494.9 352.05 495.45 352.5 496 351.7 496 350.9 496 350.35 495.45 349.8 494.9 349.8 494.1 349.8 493.3 350.35 492.75 350.9 492.2 351.7 492.2 352.5 492.2 352.05 492.75 351.6 493.3 351.6 494.1 Z"/>

<path id="Layer7_0_1_STROKES" stroke="#333333" stroke-width="1" stroke-linejoin="round" stroke-linecap="round" fill="none" d="
M 411.55 464.4
L 481.4 464.4 481.4 489.15 411.55 489.15 411.55 464.4 Z"/>

<path id="Layer6_0_1_STROKES" stroke="#333333" stroke-width="1" stroke-linejoin="round" stroke-linecap="round" fill="none" d="
M 411.55 464.4
L 481.4 464.4 481.4 489.15 411.55 489.15 411.55 464.4 Z"/>

<path id="Layer5_0_1_STROKES" stroke="#333333" stroke-width="1" stroke-linejoin="round" stroke-linecap="round" fill="none" d="
M 362.85 487.25
Q 365.9 487.3 368.95 487.15 366.35 502.65 387.5 502.95 395.9 506.05 387.65 518.35 375.1 518.15 362.7 518.35 362.7 502.7 362.85 487.25 Z"/>

<path id="Layer4_0_1_STROKES" stroke="#333333" stroke-width="1" stroke-linejoin="round" stroke-linecap="round" fill="none" d="
M 362.85 487.25
Q 365.9 487.3 368.95 487.15 366.35 502.65 387.5 502.95 395.9 506.05 387.65 518.35 375.1 518.15 362.7 518.35 362.7 502.7 362.85 487.25 Z"/>

<path id="Layer2_0_1_STROKES" stroke="#000000" stroke-width="1" stroke-linejoin="round" stroke-linecap="round" fill="none" d="
M 446.1 538.6
Q 461.6 539.65 476.9 538.85 493.8 537.95 510.35 534.75 503.7 554.3 510.35 574.6 493.05 572.65 476.8 572 460.95 571.35 446.05 571.95 430.25 572.55 415.55 574.6 422.75 557.55 415.55 534.75 430.95 537.55 446.1 538.6
L 446.05 571.95
M 436.3 464.2
Q 453.2 463.3 469.75 460.1 463.1 479.65 469.75 499.95 452.45 498 436.2 497.35 420.35 496.7 405.45 497.3 389.65 497.9 374.95 499.95 382.15 482.9 374.95 460.1 390.35 462.9 405.5 463.95 421 465 436.3 464.2
L 436.2 497.35
M 476.9 538.85
L 476.8 572
M 405.5 463.95
L 405.45 497.3"/>

<path id="Layer2_0_2_STROKES" stroke="#3E3E3E" stroke-width="1" stroke-linejoin="round" stroke-linecap="round" fill="none" d="
M 268.55 479.3
L 268.55 460.1 287.75 460.1 306.95 460.1 306.95 479.3 306.95 498.5 287.75 498.5 268.55 498.5 268.55 479.3 287.75 479.3 287.75 460.1
M 287.75 479.3
L 306.95 479.3
M 190.2 479.4
L 190.2 461.15 208.45 461.15 226.75 461.15 226.75 479.4 226.75 497.7 208.45 497.7 208.45 497.65 190.2 497.65 190.2 479.4 208.45 479.4 208.45 461.15
M 208.45 479.4
L 226.75 479.4
M 276.45 572.3
L 258.2 572.3 258.2 554.05 258.2 535.8 276.45 535.8 294.75 535.8 294.75 554.05 294.75 572.3
M 276.45 572.3
L 276.45 554.05 258.2 554.05
M 276.45 572.3
L 294.75 572.3
M 276.45 535.8
L 276.45 554.05 294.75 554.05
M 287.75 479.3
L 287.75 498.5
M 208.45 479.4
L 208.45 497.65
M 336.55 534.75
L 355.75 534.75 374.95 534.75 374.95 553.95 374.95 573.15 355.75 573.15 336.55 573.15 336.55 553.95 336.55 534.75 Z
M 374.95 553.95
L 355.75 553.95 355.75 573.15
M 336.55 553.95
L 355.75 553.95 355.75 534.75"/>

<path id="Layer2_1_1_STROKES" stroke="#000000" stroke-width="1" stroke-linejoin="round" stroke-linecap="round" fill="none" d="
M 336.55 534.75
L 374.95 534.75 374.95 573.15 336.55 573.15 336.55 534.75 Z"/>

<path id="Layer2_2_1_STROKES" stroke="#000000" stroke-width="1" stroke-linejoin="round" stroke-linecap="round" fill="none" d="
M 336.55 534.75
L 374.95 534.75 374.95 573.15 336.55 573.15 336.55 534.75 Z"/>

<path id="Layer2_3_1_STROKES" stroke="#000000" stroke-width="1" stroke-linejoin="round" stroke-linecap="round" fill="none" d="
M 415.55 534.6
Q 429.05 537 443.8 538.45 477.2 541 510.35 534.6 503.4 554.8 510.35 574.45 464.35 568.25 415.55 574.45 422.2 555.2 415.55 534.6 Z"/>

<path id="Layer2_4_1_STROKES" stroke="#000000" stroke-width="1" stroke-linejoin="round" stroke-linecap="round" fill="none" d="
M 190.2 525.8
L 226.35 525.8 226.35 608.7 190.2 608.7 190.2 525.8 Z"/>

<path id="Layer2_5_1_STROKES" stroke="#000000" stroke-width="1" stroke-linejoin="round" stroke-linecap="round" fill="none" d="
M 258.2 535.8
L 294.75 535.8 294.75 572.35 258.2 572.35 258.2 535.8 Z"/>

<path id="Layer2_6_1_STROKES" stroke="#000000" stroke-width="1" stroke-linejoin="round" stroke-linecap="round" fill="none" d="
M 336.55 534.75
L 374.95 534.75 374.95 573.15 336.55 573.15 336.55 534.75 Z"/>

<path id="Layer2_7_1_STROKES" stroke="#000000" stroke-width="1" stroke-linejoin="round" stroke-linecap="round" fill="none" d="
M 336.55 534.75
L 374.95 534.75 374.95 573.15 336.55 573.15 336.55 534.75 Z"/>

<path id="Layer2_8_1_STROKES" stroke="#000000" stroke-width="1" stroke-linejoin="round" stroke-linecap="round" fill="none" d="
M 415.55 534.6
Q 429.05 537 443.8 538.45 477.2 541 510.35 534.6 503.4 554.8 510.35 574.45 464.35 568.25 415.55 574.45 422.2 555.2 415.55 534.6 Z"/>

<path id="Layer1_0_1_STROKES" stroke="#000000" stroke-width="1" stroke-linejoin="round" stroke-linecap="round" fill="none" d="
M 287.75 460.1
L 287.75 479.3 306.95 479.3
M 268.55 479.3
L 287.75 479.3 287.75 498.5
M 208.45 461.15
L 208.45 479.4 226.75 479.4
M 190.2 479.4
L 208.45 479.4 208.45 497.7
M 258.2 554.05
L 276.45 554.05 276.45 535.8
M 294.75 554.05
L 276.45 554.05 276.45 572.35
M 336.55 553.95
L 355.75 553.95 355.75 534.75
M 374.95 553.95
L 355.75 553.95 355.75 573.15
M 476.95 538.75
L 477 571.55
M 446.1 538.65
L 446.15 571.75
M 405.5 464.15
L 405.55 497.25
M 436.35 464.25
L 436.4 497.05"/>

<path id="Layer1_1_1_STROKES" stroke="#000000" stroke-width="1" stroke-linejoin="round" stroke-linecap="round" fill="none" d="
M 167 441
L 530 441 530 609 167 609 167 441 Z"/>

<path id="Layer1_2_1_STROKES" stroke="#000000" stroke-width="1" stroke-linejoin="round" stroke-linecap="round" fill="none" d="
M 190.2 525.8
L 226.35 525.8 226.35 608.7 190.2 608.7 190.2 525.8 Z"/>

<path id="Layer1_3_1_STROKES" stroke="#000000" stroke-width="1" stroke-linejoin="round" stroke-linecap="round" fill="none" d="
M 258.2 535.8
L 294.75 535.8 294.75 572.35 258.2 572.35 258.2 535.8 Z"/>

<path id="Layer1_4_1_STROKES" stroke="#000000" stroke-width="1" stroke-linejoin="round" stroke-linecap="round" fill="none" d="
M 336.55 534.75
L 374.95 534.75 374.95 573.15 336.55 573.15 336.55 534.75 Z"/>

<path id="Layer1_5_1_STROKES" stroke="#000000" stroke-width="1" stroke-linejoin="round" stroke-linecap="round" fill="none" d="
M 415.55 534.6
Q 429.05 537 443.8 538.45 477.2 541 510.35 534.6 503.4 554.8 510.35 574.45 464.35 568.25 415.55 574.45 422.2 555.2 415.55 534.6 Z"/>

<path id="Layer1_6_1_STROKES" stroke="#000000" stroke-width="1" stroke-linejoin="round" stroke-linecap="round" fill="none" d="
M 336.55 534.75
L 374.95 534.75 374.95 573.15 336.55 573.15 336.55 534.75 Z"/>

<path id="Layer1_7_1_STROKES" stroke="#000000" stroke-width="1" stroke-linejoin="round" stroke-linecap="round" fill="none" d="
M 258.2 535.8
L 294.75 535.8 294.75 572.35 258.2 572.35 258.2 535.8 Z"/>

<path id="Layer1_8_1_STROKES" stroke="#000000" stroke-width="1" stroke-linejoin="round" stroke-linecap="round" fill="none" d="
M 336.55 534.75
L 374.95 534.75 374.95 573.15 336.55 573.15 336.55 534.75 Z"/>

<path id="Layer1_9_1_STROKES" stroke="#000000" stroke-width="1" stroke-linejoin="round" stroke-linecap="round" fill="none" d="
M 415.55 534.6
Q 429.05 537 443.8 538.45 477.2 541 510.35 534.6 503.4 554.8 510.35 574.45 464.35 568.25 415.55 574.45 422.2 555.2 415.55 534.6 Z"/>

<path id="Layer1_10_1_STROKES" stroke="#000000" stroke-width="1" stroke-linejoin="round" stroke-linecap="round" fill="none" d="
M 336.55 534.75
L 374.95 534.75 374.95 573.15 336.55 573.15 336.55 534.75 Z"/>

<path id="Layer0_0_1_STROKES" stroke="#333333" stroke-width="1" stroke-linejoin="round" stroke-linecap="round" fill="none" d="
M 223.9 568.9
Q 223.9 569.7 223.35 570.25 222.8 570.8 222 570.8 221.2 570.8 220.65 570.25 220.1 569.7 220.1 568.9 220.1 568.1 220.65 567.55 221.2 567 222 567 222.8 567 223.35 567.55 223.9 568.1 223.9 568.9 Z"/>
</defs>

<g transform="matrix( 1, 0, 0, 1, 0,0) ">
<use xlink:href="#Layer27_0_FILL"/>
</g>

<g transform="matrix( 1, 0, 0, 1, 0,0) ">
<use xlink:href="#Layer26_0_FILL"/>
</g>

<g transform="matrix( 1, 0, 0, 1, 0,0) ">
<use xlink:href="#Layer25_0_1_STROKES"/>
</g>

<g transform="matrix( 1, 0, 0, 1, 0,0) ">
<use xlink:href="#Layer24_0_FILL"/>

<use xlink:href="#Layer24_0_1_STROKES"/>
</g>

<g transform="matrix( 1, 0, 0, 1, 0,0) ">
<use xlink:href="#Layer23_0_FILL"/>

<use xlink:href="#Layer23_0_1_STROKES"/>
</g>

<g transform="matrix( 1, 0, 0, 1, 0,0) ">
<use xlink:href="#Layer22_0_FILL"/>

<use xlink:href="#Layer22_0_1_STROKES"/>
</g>

<g transform="matrix( 1, 0, 0, 1, 0,0) ">
<use xlink:href="#Layer21_0_FILL"/>

<use xlink:href="#Layer21_0_1_STROKES"/>
</g>

<g transform="matrix( 0.999969482421875, 0, 0, 1.060882568359375, -21.1,-38.1) ">
<use xlink:href="#Layer20_0_FILL"/>

<use xlink:href="#Layer20_0_1_STROKES" transform="matrix( 1.000030517578125, 0, 0, 0.942596435546875, 21.1,35.9) "/>
</g>

<g transform="matrix( 0.999969482421875, 0, 0, 1.060882568359375, -21.1,-49.3) ">
<use xlink:href="#Layer20_1_FILL"/>

<use xlink:href="#Layer20_1_1_STROKES" transform="matrix( 1.000030517578125, 0, 0, 0.942596435546875, 21.1,46.45) "/>
</g>

<g transform="matrix( 0.999969482421875, 0, 0, 1.060882568359375, -3.2,-60.45) ">
<use xlink:href="#Layer20_2_FILL"/>

<use xlink:href="#Layer20_2_1_STROKES" transform="matrix( 1.000030517578125, 0, 0, 0.942596435546875, 3.2,56.95) "/>
</g>

<g transform="matrix( 0.999969482421875, 0, 0, 1.060882568359375, 14.5,-71.7) ">
<use xlink:href="#Layer20_3_FILL"/>

<use xlink:href="#Layer20_3_1_STROKES" transform="matrix( 1.000030517578125, 0, 0, 0.942596435546875, -14.5,67.55) "/>
</g>

<g transform="matrix( 0.999969482421875, 0, 0, 1.060882568359375, 32.4,-82.85) ">
<use xlink:href="#Layer20_4_FILL"/>

<use xlink:href="#Layer20_4_1_STROKES" transform="matrix( 1.000030517578125, 0, 0, 0.942596435546875, -32.4,78.05) "/>
</g>

<g transform="matrix( 0.999969482421875, 0, 0, 1.060882568359375, 50.3,-94.05) ">
<use xlink:href="#Layer20_5_FILL"/>

<use xlink:href="#Layer20_5_1_STROKES" transform="matrix( 1.000030517578125, 0, 0, 0.942596435546875, -50.3,88.65) "/>
</g>

<g transform="matrix( 0.999969482421875, 0, 0, 1.060882568359375, 68.2,-105.2) ">
<use xlink:href="#Layer20_6_FILL"/>

<use xlink:href="#Layer20_6_1_STROKES" transform="matrix( 1.000030517578125, 0, 0, 0.942596435546875, -68.2,99.15) "/>
</g>

<g transform="matrix( 0.999969482421875, 0, 0, 1.060882568359375, 86.1,-116.5) ">
<use xlink:href="#Layer20_7_FILL"/>

<use xlink:href="#Layer20_7_1_STROKES" transform="matrix( 1.000030517578125, 0, 0, 0.942596435546875, -86.1,109.8) "/>
</g>

<g transform="matrix( 0.999969482421875, 0, 0, 1.060882568359375, -21.1,-38.1) ">
<use xlink:href="#Layer19_0_1_STROKES" transform="matrix( 1.000030517578125, 0, 0, 0.942596435546875, 21.1,35.9) "/>
</g>

<g transform="matrix( 0.999969482421875, 0, 0, 1.060882568359375, -21.1,-49.3) ">
<use xlink:href="#Layer19_1_1_STROKES" transform="matrix( 1.000030517578125, 0, 0, 0.942596435546875, 21.1,46.45) "/>
</g>

<g transform="matrix( 0.999969482421875, 0, 0, 1.060882568359375, -3.2,-60.45) ">
<use xlink:href="#Layer19_2_1_STROKES" transform="matrix( 1.000030517578125, 0, 0, 0.942596435546875, 3.2,56.95) "/>
</g>

<g transform="matrix( 0.999969482421875, 0, 0, 1.060882568359375, 14.5,-71.7) ">
<use xlink:href="#Layer19_3_1_STROKES" transform="matrix( 1.000030517578125, 0, 0, 0.942596435546875, -14.5,67.55) "/>
</g>

<g transform="matrix( 0.999969482421875, 0, 0, 1.060882568359375, 32.4,-82.85) ">
<use xlink:href="#Layer19_4_1_STROKES" transform="matrix( 1.000030517578125, 0, 0, 0.942596435546875, -32.4,78.05) "/>
</g>

<g transform="matrix( 0.999969482421875, 0, 0, 1.060882568359375, 50.3,-94.05) ">
<use xlink:href="#Layer19_5_1_STROKES" transform="matrix( 1.000030517578125, 0, 0, 0.942596435546875, -50.3,88.65) "/>
</g>

<g transform="matrix( 0.999969482421875, 0, 0, 1.060882568359375, 68.2,-105.2) ">
<use xlink:href="#Layer19_6_1_STROKES" transform="matrix( 1.000030517578125, 0, 0, 0.942596435546875, -68.2,99.15) "/>
</g>

<g transform="matrix( 0.999969482421875, 0, 0, 1.060882568359375, 86.1,-116.5) ">
<use xlink:href="#Layer19_7_1_STROKES" transform="matrix( 1.000030517578125, 0, 0, 0.942596435546875, -86.1,109.8) "/>
</g>

<g transform="matrix( 1, 0, 0, 1, 0,0) ">
<use xlink:href="#Layer18_0_FILL"/>

<use xlink:href="#Layer18_0_1_STROKES"/>

<use xlink:href="#Layer18_0_2_STROKES"/>
</g>

<g transform="matrix( 1, 0, 0, 1, 0,0) ">
<use xlink:href="#Layer18_1_FILL"/>

<use xlink:href="#Layer18_1_1_STROKES"/>
</g>

<g transform="matrix( 1, 0, 0, 1, 0,0) ">
<use xlink:href="#Layer18_2_1_STROKES"/>
</g>

<g transform="matrix( 1, 0, 0, 1, 0,0) ">
<use xlink:href="#Layer18_3_1_STROKES"/>
</g>

<g transform="matrix( 1, 0, 0, 1, 0,0) ">
<use xlink:href="#Layer18_4_FILL"/>

<use xlink:href="#Layer18_4_1_STROKES"/>
</g>

<g transform="matrix( 1, 0, 0, 1, 0,0) ">
<use xlink:href="#Layer18_5_1_STROKES"/>
</g>

<g transform="matrix( 1, 0, 0, 1, 0,0) ">
<use xlink:href="#Layer17_0_FILL"/>

<use xlink:href="#Layer17_0_1_STROKES"/>

<use xlink:href="#Layer17_0_2_STROKES"/>
</g>

<g transform="matrix( 1, 0, 0, 1, 0,0) ">
<use xlink:href="#Layer17_1_1_STROKES"/>
</g>

<g transform="matrix( 1, 0, 0, 1, 0,0) ">
<use xlink:href="#Layer17_2_1_STROKES"/>
</g>

<g transform="matrix( 1, 0, 0, 1, 0,0) ">
<use xlink:href="#Layer17_3_1_STROKES"/>
</g>

<g transform="matrix( 1, 0, 0, 1, 0,0) ">
<use xlink:href="#Layer17_4_1_STROKES"/>
</g>

<g transform="matrix( 1, 0, 0, 1, 0,0) ">
<use xlink:href="#Layer17_5_1_STROKES"/>
</g>

<g transform="matrix( 1, 0, 0, 1, 0,0) ">
<use xlink:href="#Layer16_0_1_STROKES"/>
</g>

<g transform="matrix( 1, 0, 0, 1, 0,0) ">
<use xlink:href="#Layer15_0_1_STROKES"/>
</g>

<g transform="matrix( 1, 0, 0, 1, 0,0) ">
<use xlink:href="#Layer14_0_FILL"/>

<use xlink:href="#Layer14_0_1_STROKES"/>
</g>

<g transform="matrix( 1, 0, 0, 1, 0,0) ">
<use xlink:href="#Layer13_0_FILL"/>

<use xlink:href="#Layer13_0_1_STROKES"/>
</g>

<g transform="matrix( 1, 0, 0, 1, 0,0) ">
<use xlink:href="#Layer12_0_1_STROKES"/>
</g>

<g transform="matrix( 1, 0, 0, 1, -0.3,0) ">
<use xlink:href="#Layer12_1_FILL"/>

<use xlink:href="#Layer12_1_1_STROKES"/>
</g>

<g transform="matrix( 1, 0, 0, 1, -0.3,0) ">
<use xlink:href="#Layer12_2_1_STROKES"/>
</g>

<g transform="matrix( 1, 0, 0, 1, -0.3,0) ">
<use xlink:href="#Layer12_3_FILL"/>

<use xlink:href="#Layer12_3_1_STROKES"/>
</g>

<g transform="matrix( 1, 0, 0, 1, -0.3,0) ">
<use xlink:href="#Layer12_4_1_STROKES"/>
</g>

<g transform="matrix( 1, 0, 0, 1, 0,0) ">
<use xlink:href="#Layer11_0_1_STROKES"/>
</g>

<g transform="matrix( 1, 0, 0, 1, -0.3,0) ">
<use xlink:href="#Layer11_1_1_STROKES"/>
</g>

<g transform="matrix( 1, 0, 0, 1, -0.3,0) ">
<use xlink:href="#Layer11_2_1_STROKES"/>
</g>

<g transform="matrix( 1, 0, 0, 1, -0.3,0) ">
<use xlink:href="#Layer11_3_1_STROKES"/>
</g>

<g transform="matrix( 1, 0, 0, 1, -0.3,0) ">
<use xlink:href="#Layer11_4_1_STROKES"/>
</g>

<g transform="matrix( 1, 0, 0, 1, 0,0) ">
<use xlink:href="#Layer10_0_FILL"/>
</g>

<g transform="matrix( 1, 0, 0, 1, 0,0) ">
<use xlink:href="#Layer9_0_1_STROKES"/>
</g>

<g transform="matrix( 1, 0, 0, 1, 0,0) ">
<use xlink:href="#Layer8_0_1_STROKES"/>
</g>

<g transform="matrix( 1, 0, 0, 1, 0,0) ">
<use xlink:href="#Layer7_0_FILL"/>

<use xlink:href="#Layer7_0_1_STROKES"/>
</g>

<g transform="matrix( 1, 0, 0, 1, 0,0) ">
<use xlink:href="#Layer6_0_1_STROKES"/>
</g>

<g transform="matrix( 1, 0, 0, 1, 0,0) ">
<use xlink:href="#Layer5_0_FILL"/>

<use xlink:href="#Layer5_0_1_STROKES"/>
</g>

<g transform="matrix( 1, 0, 0, 1, 0,0) ">
<use xlink:href="#Layer4_0_1_STROKES"/>
</g>

<g transform="matrix( 1, 0, 0, 1, 0,0) ">
<use xlink:href="#Layer3_0_FILL"/>
</g>

<g transform="matrix( 1, 0, 0, 1, 0,0) ">
<use xlink:href="#Layer2_0_FILL"/>

<use xlink:href="#Layer2_0_1_STROKES"/>

<use xlink:href="#Layer2_0_2_STROKES"/>
</g>

<g transform="matrix( 1, 0, 0, 1, 0,0) ">
<use xlink:href="#Layer2_1_1_STROKES"/>
</g>

<g transform="matrix( 1, 0, 0, 1, 0,0) ">
<use xlink:href="#Layer2_2_1_STROKES"/>
</g>

<g transform="matrix( 1, 0, 0, 1, 0,0.15) ">
<use xlink:href="#Layer2_3_1_STROKES"/>
</g>

<g transform="matrix( 1, 0, 0, 1, 0,0) ">
<use xlink:href="#Layer2_4_FILL"/>

<use xlink:href="#Layer2_4_1_STROKES"/>
</g>

<g transform="matrix( 1, 0, 0, 1, -68,-74.65) ">
<use xlink:href="#Layer2_5_1_STROKES"/>
</g>

<g transform="matrix( 1, 0, 0, 1, -68,-74.65) ">
<use xlink:href="#Layer2_6_1_STROKES"/>
</g>

<g transform="matrix( 1, 0, 0, 1, -68,-74.65) ">
<use xlink:href="#Layer2_7_1_STROKES"/>
</g>

<g transform="matrix( 1, 0, 0, 1, -40.6,-74.5) ">
<use xlink:href="#Layer2_8_1_STROKES"/>
</g>

<g transform="matrix( 1, 0, 0, 1, 0,0) ">
<use xlink:href="#Layer1_0_1_STROKES"/>
</g>

<g transform="matrix( 1, 0, 0, 1, 0,0) ">
<use xlink:href="#Layer1_1_1_STROKES"/>
</g>

<g transform="matrix( 1, 0, 0, 1, 0,0) ">
<use xlink:href="#Layer1_2_1_STROKES"/>
</g>

<g transform="matrix( 1, 0, 0, 1, 0,0) ">
<use xlink:href="#Layer1_3_1_STROKES"/>
</g>

<g transform="matrix( 1, 0, 0, 1, 0,0) ">
<use xlink:href="#Layer1_4_1_STROKES"/>
</g>

<g transform="matrix( 1, 0, 0, 1, 0,0) ">
<use xlink:href="#Layer1_5_1_STROKES"/>
</g>

<g transform="matrix( 1, 0, 0, 1, 0,0) ">
<use xlink:href="#Layer1_6_1_STROKES"/>
</g>

<g transform="matrix( 1, 0, 0, 1, -68,-74.65) ">
<use xlink:href="#Layer1_7_1_STROKES"/>
</g>

<g transform="matrix( 1, 0, 0, 1, -68,-74.65) ">
<use xlink:href="#Layer1_8_1_STROKES"/>
</g>

<g transform="matrix( 1, 0, 0, 1, -40.6,-74.5) ">
<use xlink:href="#Layer1_9_1_STROKES"/>
</g>

<g transform="matrix( 1, 0, 0, 1, -68,-74.65) ">
<use xlink:href="#Layer1_10_1_STROKES"/>
</g>

<g transform="matrix( 1, 0, 0, 1, 0,0) ">
<use xlink:href="#Layer0_0_FILL"/>

<use xlink:href="#Layer0_0_1_STROKES"/>
</g>
</svg>
